<?xml version="1.0" standalone="no"?>
<!DOCTYPE svg PUBLIC "-//W3C//DTD SVG 20010904//EN"
 "http://www.w3.org/TR/2001/REC-SVG-20010904/DTD/svg10.dtd">
<svg version="1.0" xmlns="http://www.w3.org/2000/svg"
 width="70.000000pt" height="70.000000pt" viewBox="0 0 70.000000 70.000000"
 preserveAspectRatio="xMidYMid meet">
<metadata>
Created by potrace 1.14, written by Peter Selinger 2001-2017
</metadata>
<g transform="translate(0.000000,70.000000) scale(0.100000,-0.100000)"
fill="#000000" stroke="none">
<path d="M0 350 l0 -350 350 0 350 0 -2 348 -3 347 -347 3 -348 2 0 -350z
m262 143 c3 -37 4 -38 41 -37 32 0 37 -3 37 -23 0 -20 5 -23 34 -23 l35 0 3
53 3 52 46 3 47 3 1 -115 2 -116 -131 0 c-128 0 -130 0 -131 23 l-2 22 -4 -22
c-6 -31 -63 -34 -63 -3 0 11 6 20 13 21 10 0 10 2 0 6 -9 3 -13 33 -13 99 l0
94 39 0 c39 0 40 -1 43 -37z m-161 -252 c7 11 9 11 9 -3 0 -11 -8 -18 -20 -18
-22 0 -23 1 -13 27 7 17 8 17 11 -1 3 -15 6 -16 13 -5z m89 -2 c0 -12 -29 -24
-37 -16 -3 4 -3 13 0 21 6 16 37 11 37 -5z m50 5 c0 -2 -9 -8 -20 -14 -17 -9
-20 -8 -20 9 0 14 5 18 20 14 11 -3 20 -7 20 -9z m60 2 c0 -8 -7 -16 -15 -20
-10 -4 -15 1 -15 14 0 11 7 20 15 20 8 0 15 -6 15 -14z m50 -8 c0 -18 -19 -21
-32 -3 -9 12 -2 22 17 22 8 0 15 -9 15 -19z m46 2 c0 -11 -6 -20 -13 -20 -7 0
-13 9 -13 20 0 11 6 20 13 20 7 0 13 -9 13 -20z m47 6 c6 -16 -1 -26 -19 -26
-7 0 -10 8 -7 20 6 23 19 26 26 6z m37 -6 c0 -11 -2 -20 -4 -20 -2 0 -6 9 -9
20 -3 11 -1 20 4 20 5 0 9 -9 9 -20z m73 13 c-7 -2 -13 -9 -13 -15 0 -6 7 -8
15 -4 8 3 15 1 15 -4 0 -6 -9 -10 -20 -10 -11 0 -20 6 -20 13 0 17 10 27 24
26 6 0 5 -3 -1 -6z m57 -13 c0 -11 -7 -20 -15 -20 -8 0 -15 9 -15 20 0 11 7
20 15 20 8 0 15 -9 15 -20z m-470 1 c0 -6 -4 -13 -10 -16 -5 -3 -10 1 -10 9 0
9 5 16 10 16 6 0 10 -4 10 -9z m377 -13 c-3 -8 -6 -5 -6 6 -1 11 2 17 5 13 3
-3 4 -12 1 -19z m-307 -78 c0 -5 -12 -10 -27 -9 l-28 1 25 8 c14 4 26 8 28 9
1 1 2 -3 2 -9z m100 -6 c0 -2 -17 -4 -37 -3 -33 1 -35 2 -13 8 23 7 50 4 50
-5z m40 6 c0 -5 -8 -10 -17 -10 -15 0 -16 2 -3 10 19 12 20 12 20 0z m50 0 c0
-5 -8 -10 -17 -10 -15 0 -16 2 -3 10 19 12 20 12 20 0z m210 -6 c0 -2 -18 -4
-40 -4 -22 0 -40 3 -40 8 0 4 18 6 40 4 22 -2 40 -6 40 -8z m-472 -1 c-10 -2
-28 -2 -40 0 -13 2 -5 4 17 4 22 1 32 -1 23 -4z m330 0 c-10 -2 -26 -2 -35 0
-10 3 -2 5 17 5 19 0 27 -2 18 -5z m49 1 c-3 -3 -12 -4 -19 -1 -8 3 -5 6 6 6
11 1 17 -2 13 -5z"/>
<path d="M201 454 c0 -11 3 -14 6 -6 3 7 2 16 -1 19 -3 4 -6 -2 -5 -13z"/>
<path d="M231 454 c0 -11 3 -14 6 -6 3 7 2 16 -1 19 -3 4 -6 -2 -5 -13z"/>
<path d="M431 454 c0 -11 3 -14 6 -6 3 7 2 16 -1 19 -3 4 -6 -2 -5 -13z"/>
<path d="M451 454 c0 -11 3 -14 6 -6 3 7 2 16 -1 19 -3 4 -6 -2 -5 -13z"/>
<path d="M481 454 c0 -11 3 -14 6 -6 3 7 2 16 -1 19 -3 4 -6 -2 -5 -13z"/>
<path d="M431 404 c0 -11 3 -14 6 -6 3 7 2 16 -1 19 -3 4 -6 -2 -5 -13z"/>
<path d="M481 404 c0 -11 3 -14 6 -6 3 7 2 16 -1 19 -3 4 -6 -2 -5 -13z"/>
<path d="M202 385 c0 -16 2 -22 5 -12 2 9 2 23 0 30 -3 6 -5 -1 -5 -18z"/>
<path d="M232 385 c0 -16 2 -22 5 -12 2 9 2 23 0 30 -3 6 -5 -1 -5 -18z"/>
<path d="M450 400 c0 -5 5 -10 11 -10 5 0 7 5 4 10 -3 6 -8 10 -11 10 -2 0 -4
-4 -4 -10z"/>
<path d="M270 330 c0 -27 3 -30 30 -30 27 0 30 3 30 30 0 27 -3 30 -30 30 -27
0 -30 -3 -30 -30z"/>
<path d="M350 324 c0 -22 4 -25 28 -22 19 2 28 9 30 26 3 19 -1 22 -27 22 -27
0 -31 -4 -31 -26z"/>
<path d="M450 331 c0 -20 25 -35 41 -25 5 3 9 14 9 25 0 14 -7 19 -25 19 -18
0 -25 -5 -25 -19z"/>
<path d="M420 320 c0 -11 5 -20 10 -20 6 0 10 9 10 20 0 11 -4 20 -10 20 -5 0
-10 -9 -10 -20z"/>
</g>
</svg>
